<svg version="1.1" xmlns="http://www.w3.org/2000/svg" viewBox="0 0 1287.5820007324219 389.99256134033203" width="1287.5820007324219" height="389.99256134033203">
  <!-- svg-source:excalidraw -->
  
  <defs>
    <style class="style-fonts">
      @font-face {
        font-family: "Virgil";
        src: url("https://excalidraw.com/Virgil.woff2");
      }
      @font-face {
        font-family: "Cascadia";
        src: url("https://excalidraw.com/Cascadia.woff2");
      }
    </style>
  </defs>
  <rect x="0" y="0" width="1287.5820007324219" height="389.99256134033203" fill="#ffffff"></rect><g stroke-linecap="round" transform="translate(10 13.082077026367188) rotate(0 60 28.5)"><path d="M14.25 0 M14.25 0 C45.57 -2.36, 71.92 -2.49, 105.75 0 M14.25 0 C46.87 -1.01, 80 -1.02, 105.75 0 M105.75 0 C113.95 -0.77, 121.01 6.34, 120 14.25 M105.75 0 C115.61 -2.04, 119.95 6.36, 120 14.25 M120 14.25 C118.37 24.37, 120.48 36.73, 120 42.75 M120 14.25 C120.02 20.04, 120.62 27.19, 120 42.75 M120 42.75 C120.44 54, 115.46 58.88, 105.75 57 M120 42.75 C121.25 53.16, 115.64 58.18, 105.75 57 M105.75 57 C75.91 58.06, 50.79 55.13, 14.25 57 M105.75 57 C72.01 56.61, 39.22 57.38, 14.25 57 M14.25 57 C4.24 56.52, 0.64 52.88, 0 42.75 M14.25 57 C5.33 56.54, -1.01 50.38, 0 42.75 M0 42.75 C-1.54 34, 1.4 23.77, 0 14.25 M0 42.75 C0.53 34.59, -0.46 26.49, 0 14.25 M0 14.25 C0.46 4.49, 4 -0.63, 14.25 0 M0 14.25 C1.66 3.51, 3.31 0.98, 14.25 0" stroke="#000000" stroke-width="1" fill="none"></path></g><g transform="translate(20 28.582077026367188) rotate(0 50 13)"><text x="50" y="18" font-family="Virgil, Segoe UI Emoji" font-size="20px" fill="#000000" text-anchor="middle" style="white-space: pre;" direction="ltr">my_library</text></g><g stroke-linecap="round" transform="translate(172.45521545410156 130.13430786132812) rotate(0 53.5 25)"><path d="M12.5 0 M12.5 0 C38.26 -0.08, 67.62 0.83, 94.5 0 M12.5 0 C30.17 -0.28, 46.13 0.45, 94.5 0 M94.5 0 C102.68 -0.57, 107.11 3.79, 107 12.5 M94.5 0 C102.94 1, 109.2 5.47, 107 12.5 M107 12.5 C108.54 22.96, 105.48 29.31, 107 37.5 M107 12.5 C107.62 21.54, 107.52 28.97, 107 37.5 M107 37.5 C108.87 45.4, 104.37 49.43, 94.5 50 M107 37.5 C107.74 44.37, 103.08 50.84, 94.5 50 M94.5 50 C66.41 51.74, 36.01 51.35, 12.5 50 M94.5 50 C72.23 50.66, 51.54 49.22, 12.5 50 M12.5 50 C5.48 49.47, -1.15 45.98, 0 37.5 M12.5 50 C4.17 48, 1.86 45.22, 0 37.5 M0 37.5 C-1.79 29.56, 1.77 23.27, 0 12.5 M0 37.5 C-0.58 28.48, -1.2 20.8, 0 12.5 M0 12.5 C-0.37 3.14, 2.99 -1.01, 12.5 0 M0 12.5 C-0.1 2.34, 4.64 -1.84, 12.5 0" stroke="#000000" stroke-width="1" fill="none"></path></g><g transform="translate(185.45521545410156 142.13430786132812) rotate(0 40.5 13)"><text x="40.5" y="18" font-family="Virgil, Segoe UI Emoji" font-size="20px" fill="#000000" text-anchor="middle" style="white-space: pre;" direction="ltr">folder_1</text></g><g stroke-linecap="round" transform="translate(363.11932373046875 135.15658569335938) rotate(0 103 32.5)"><path d="M130 8.25 M130 8.25 C145.35 13.14, 156.16 17.57, 180 24.75 M130 8.25 C141.71 11.09, 153.04 14.84, 180 24.75 M180 24.75 C205.88 31.87, 204.75 32.22, 180 41.25 M180 24.75 C208.23 31.33, 204.62 32.43, 180 41.25 M180 41.25 C166.98 43.52, 156.12 49.06, 130 56.75 M180 41.25 C167.29 45.55, 153.36 48.98, 130 56.75 M130 56.75 C102.62 64.26, 105.38 64.48, 78 56.75 M130 56.75 C105.14 65.07, 104.34 66.09, 78 56.75 M78 56.75 C56.49 52.29, 39.63 45.61, 26 41.25 M78 56.75 C58.88 51.38, 41.33 45, 26 41.25 M26 41.25 C1.36 31.13, -1.79 34.73, 26 24.75 M26 41.25 C-1.42 34.93, 0.61 33.1, 26 24.75 M26 24.75 C41.84 18.43, 55.12 15.26, 78 8.25 M26 24.75 C38.14 20.17, 53.12 15.98, 78 8.25 M78 8.25 C102.62 1.44, 103.36 0.64, 130 8.25 M78 8.25 C105.61 0.46, 106.29 2.16, 130 8.25" stroke="#000000" stroke-width="1" fill="none"></path></g><g transform="translate(412.11932373046875 154.65658569335938) rotate(0 54 13)"><text x="54" y="18" font-family="Virgil, Segoe UI Emoji" font-size="20px" fill="#000000" text-anchor="middle" style="white-space: pre;" direction="ltr">text_1.txt</text></g><g stroke-linecap="round" transform="translate(358.1119689941406 217.80604553222656) rotate(0 103 32.5)"><path d="M130 8.25 M130 8.25 C144.19 12.36, 160.29 16.41, 180 24.75 M130 8.25 C148.52 13.78, 168.32 21.29, 180 24.75 M180 24.75 C205.13 34.75, 204.18 33.75, 180 41.25 M180 24.75 C204.33 32.47, 207.47 32.33, 180 41.25 M180 41.25 C162.52 44.62, 147.45 50.52, 130 56.75 M180 41.25 C166.49 46.59, 154.72 50.33, 130 56.75 M130 56.75 C103.26 63.77, 103.47 63.79, 78 56.75 M130 56.75 C102.97 65.61, 102.22 66, 78 56.75 M78 56.75 C67.7 54.05, 54.07 49.49, 26 41.25 M78 56.75 C62.54 51.14, 46.69 47.53, 26 41.25 M26 41.25 C0.57 33.72, 1.67 32.13, 26 24.75 M26 41.25 C2.15 33.64, 2.16 31.02, 26 24.75 M26 24.75 C38.9 22.89, 47.92 18.58, 78 8.25 M26 24.75 C42.75 18.84, 58.66 15.47, 78 8.25 M78 8.25 C105.09 -0.81, 102.17 -1.69, 130 8.25 M78 8.25 C103.99 -1.49, 104.91 -1.2, 130 8.25" stroke="#000000" stroke-width="1" fill="none"></path></g><g transform="translate(402.6119689941406 237.30604553222656) rotate(0 58.5 13)"><text x="58.5" y="18" font-family="Virgil, Segoe UI Emoji" font-size="20px" fill="#000000" text-anchor="middle" style="white-space: pre;" direction="ltr">text_2.txt</text></g><g stroke-linecap="round" transform="translate(351.3508605957031 314.8059844970703) rotate(0 103 32.5)"><path d="M130 8.25 M130 8.25 C145.41 11.9, 159.8 18.9, 180 24.75 M130 8.25 C146.05 14.19, 163.19 19.61, 180 24.75 M180 24.75 C204.27 31.46, 207.94 31.56, 180 41.25 M180 24.75 C207.7 34.66, 204.74 33.93, 180 41.25 M180 41.25 C164.88 44.29, 148.34 52.78, 130 56.75 M180 41.25 C161.37 46.28, 143.85 52.17, 130 56.75 M130 56.75 C102.96 63.22, 104.63 64.51, 78 56.75 M130 56.75 C104.22 64.49, 104.95 63.94, 78 56.75 M78 56.75 C62.67 51.61, 46.23 46.42, 26 41.25 M78 56.75 C60.36 52, 45.12 45.98, 26 41.25 M26 41.25 C-0.33 34.69, -1.09 31.85, 26 24.75 M26 41.25 C-0.83 34.82, -2.29 31.56, 26 24.75 M26 24.75 C44.42 17, 65.55 10.63, 78 8.25 M26 24.75 C45.3 19.01, 64.32 12.9, 78 8.25 M78 8.25 C103.22 0.2, 105.17 1.02, 130 8.25 M78 8.25 C102.08 1.68, 102.7 -0.43, 130 8.25" stroke="#000000" stroke-width="1" fill="none"></path></g><g transform="translate(396.3508605957031 334.3059844970703) rotate(0 58 13)"><text x="58" y="18" font-family="Virgil, Segoe UI Emoji" font-size="20px" fill="#000000" text-anchor="middle" style="white-space: pre;" direction="ltr">text_3.txt</text></g><g stroke-linecap="round"><g transform="translate(133.30335445437288 72.91346803876604) rotate(0 13.526614392219102 45.612794758942776)"><path d="M0.2 0.79 C-0.5 14.35, -8.3 67.79, -3.38 82.05 C1.53 96.3, 24.09 85.45, 29.67 86.33 M-1.16 0.16 C-1.52 13.82, -6.53 68.76, -0.99 83.34 C4.54 97.92, 26.87 87.32, 32.05 87.65" stroke="#000000" stroke-width="1" fill="none"></path></g><g transform="translate(133.30335445437288 72.91346803876604) rotate(0 13.526614392219102 45.612794758942776)"><path d="M18.79 95.55 C22.21 91.81, 28.1 89.25, 33.46 87.29 M16.91 95.88 C21.43 94.83, 24.52 91.96, 32.54 87.05" stroke="#000000" stroke-width="1" fill="none"></path></g><g transform="translate(133.30335445437288 72.91346803876604) rotate(0 13.526614392219102 45.612794758942776)"><path d="M16.53 84.26 C20.84 84.63, 27.55 86.18, 33.46 87.29 M14.65 84.6 C19.84 86.38, 23.5 86.33, 32.54 87.05" stroke="#000000" stroke-width="1" fill="none"></path></g></g><mask></mask><g stroke-linecap="round"><g transform="translate(288.1416931152344 156.38063049316406) rotate(0 35.86649668406858 5.3791014845327645)"><path d="M-0.9 -1.11 C11.18 0.79, 60.46 9.98, 72.63 11.87 M0.83 0.92 C12.71 2.46, 59.19 8.56, 71.49 10.28" stroke="#000000" stroke-width="1" fill="none"></path></g><g transform="translate(288.1416931152344 156.38063049316406) rotate(0 35.86649668406858 5.3791014845327645)"><path d="M40.33 16.07 C52.95 13.52, 59.34 14.69, 69.79 10.5 M42.44 17.45 C49.38 14.87, 56.18 14.23, 70.86 10.08" stroke="#000000" stroke-width="1" fill="none"></path></g><g transform="translate(288.1416931152344 156.38063049316406) rotate(0 35.86649668406858 5.3791014845327645)"><path d="M43.08 -4.27 C54.92 -0.53, 60.46 6.96, 69.79 10.5 M45.18 -2.89 C51.38 -0.74, 57.54 3.34, 70.86 10.08" stroke="#000000" stroke-width="1" fill="none"></path></g></g><mask></mask><g stroke-linecap="round"><g transform="translate(287.1865539550781 165.93287658691452) rotate(0 31.32418841424918 41.69726771029909)"><path d="M0.92 0.04 C1.35 12.49, -9.41 60.89, 1.62 74.59 C12.66 88.28, 56.47 80.67, 67.14 82.2 M-0.06 -0.99 C0.27 11.61, -10.57 61.61, 0.53 75.66 C11.63 89.71, 55.75 82.3, 66.54 83.32" stroke="#000000" stroke-width="1" fill="none"></path></g><g transform="translate(287.1865539550781 165.93287658691452) rotate(0 31.32418841424918 41.69726771029909)"><path d="M38.76 94.02 C43.35 92.37, 50.3 87.43, 68.49 84.28 M38.99 95.18 C47.52 89.86, 56.98 87.03, 66.88 84.2" stroke="#000000" stroke-width="1" fill="none"></path></g><g transform="translate(287.1865539550781 165.93287658691452) rotate(0 31.32418841424918 41.69726771029909)"><path d="M38.09 73.51 C42.8 76.35, 49.9 75.9, 68.49 84.28 M38.32 74.67 C47.04 76.06, 56.72 79.93, 66.88 84.2" stroke="#000000" stroke-width="1" fill="none"></path></g></g><mask></mask><g stroke-linecap="round"><g transform="translate(133.3955078125 49.39555358886736) rotate(0 102.00095874901258 151.97375059718618)"><path d="M-0.99 -1.07 C0.82 43.29, -23.84 215.91, 11.61 266.92 C47.05 317.94, 178.42 298.77, 211.66 305.02 M0.69 0.99 C2.37 45.43, -23.86 217.86, 11.23 268.18 C46.33 318.5, 177.88 296.71, 211.24 302.91" stroke="#000000" stroke-width="1" fill="none"></path></g><g transform="translate(133.3955078125 49.39555358886736) rotate(0 102.00095874901258 151.97375059718618)"><path d="M181.12 314.6 C192.21 310.5, 204.14 305.98, 210.98 302.78 M183.74 312.69 C192.06 309.59, 199.76 306.77, 211.07 303.82" stroke="#000000" stroke-width="1" fill="none"></path></g><g transform="translate(133.3955078125 49.39555358886736) rotate(0 102.00095874901258 151.97375059718618)"><path d="M181.41 294.08 C192.53 297.42, 204.36 300.34, 210.98 302.78 M184.03 292.17 C192.27 295.48, 199.88 299.05, 211.07 303.82" stroke="#000000" stroke-width="1" fill="none"></path></g></g><mask></mask><g stroke-linecap="round" transform="translate(413.2461242675781 10) rotate(0 54 26.5)"><path d="M13.25 0 M13.25 0 C31.89 -0.71, 54.59 1.14, 94.75 0 M13.25 0 C43.53 0.88, 74.19 -0.73, 94.75 0 M94.75 0 C102.49 0.73, 106.39 5.33, 108 13.25 M94.75 0 C103.83 -1.72, 107.32 3.08, 108 13.25 M108 13.25 C106.17 22.7, 107.5 30.28, 108 39.75 M108 13.25 C107.5 22.41, 107.87 29.31, 108 39.75 M108 39.75 C106.84 48.6, 104.71 52.13, 94.75 53 M108 39.75 C107.73 46.86, 102.66 50.98, 94.75 53 M94.75 53 C74.79 53.06, 53.47 53.69, 13.25 53 M94.75 53 C72.62 53.01, 51.76 53.34, 13.25 53 M13.25 53 C4.8 52.43, -1.3 46.69, 0 39.75 M13.25 53 C3.68 53, 1.24 49.85, 0 39.75 M0 39.75 C-0.08 32.22, -1.07 22.93, 0 13.25 M0 39.75 C-0.18 32.68, 0.87 23.95, 0 13.25 M0 13.25 C-0.08 5.04, 3.74 -1.62, 13.25 0 M0 13.25 C0.74 2.99, 6.45 -1.38, 13.25 0" stroke="#000000" stroke-width="1" fill="none"></path></g><g transform="translate(443.2461242675781 23.5) rotate(0 24 13)"><text x="24" y="18" font-family="Virgil, Segoe UI Emoji" font-size="20px" fill="#000000" text-anchor="middle" style="white-space: pre;" direction="ltr">.copy</text></g><g stroke-linecap="round"><g transform="translate(135.3059692382812 39.0025748565653) rotate(0 133.98611724925695 1.1224889402546552)"><path d="M0.29 0.12 C45.12 0.81, 224.16 2.69, 268.99 3.11 M-1.02 -0.86 C43.71 -0.42, 223.35 0.55, 268.35 1.38" stroke="#000000" stroke-width="1" fill="none"></path></g><g transform="translate(135.3059692382812 39.0025748565653) rotate(0 133.98611724925695 1.1224889402546552)"><path d="M240.24 12.29 C249.85 9.69, 257.53 6.05, 268.79 0.33 M241.04 11.42 C246.85 7.75, 254.58 5.15, 267.63 1.7" stroke="#000000" stroke-width="1" fill="none"></path></g><g transform="translate(135.3059692382812 39.0025748565653) rotate(0 133.98611724925695 1.1224889402546552)"><path d="M240.47 -8.23 C249.83 -4.7, 257.44 -2.21, 268.79 0.33 M241.26 -9.1 C246.94 -7.58, 254.61 -4.99, 267.63 1.7" stroke="#000000" stroke-width="1" fill="none"></path></g></g><mask></mask><g stroke-linecap="round" transform="translate(618.8991165161133 130.32088470458984) rotate(0 53.5 25)"><path d="M12.5 0 M12.5 0 C29.88 -1.61, 51.68 -0.4, 94.5 0 M12.5 0 C40.58 0.05, 69.43 -0.22, 94.5 0 M94.5 0 C102.1 -0.19, 107.91 4.51, 107 12.5 M94.5 0 C102.64 -0.57, 105.56 2.89, 107 12.5 M107 12.5 C105.39 22.65, 106.48 29.54, 107 37.5 M107 12.5 C107.85 16.95, 107.12 23.42, 107 37.5 M107 37.5 C105.23 47.63, 102.06 50.68, 94.5 50 M107 37.5 C108.9 47.43, 104.98 50.79, 94.5 50 M94.5 50 C71.09 47.7, 43.86 50.49, 12.5 50 M94.5 50 C74.9 50.92, 56.63 50.98, 12.5 50 M12.5 50 C3.33 48.85, 0.42 44.53, 0 37.5 M12.5 50 C3 48.62, 2.24 45.8, 0 37.5 M0 37.5 C1.14 31.38, -1.68 23.61, 0 12.5 M0 37.5 C-0.51 32.01, -0.46 24.39, 0 12.5 M0 12.5 C2 5.62, 3.34 0.47, 12.5 0 M0 12.5 C1.83 3.04, 4.47 -1.34, 12.5 0" stroke="#000000" stroke-width="1" fill="none"></path></g><g transform="translate(631.8991165161133 142.32088470458984) rotate(0 40.5 13)"><text x="40.5" y="18" font-family="Virgil, Segoe UI Emoji" font-size="20px" fill="#000000" text-anchor="middle" style="white-space: pre;" direction="ltr">folder_1</text></g><g stroke-linecap="round" transform="translate(809.5632247924805 135.3431625366211) rotate(0 103 32.5)"><path d="M130 8.25 M130 8.25 C146.99 13.96, 164.2 20.6, 180 24.75 M130 8.25 C140.72 11.54, 152.65 16.05, 180 24.75 M180 24.75 C206.91 33.34, 205.84 32.5, 180 41.25 M180 24.75 C204.56 31.72, 206.91 30.82, 180 41.25 M180 41.25 C165.52 46.1, 149.93 51.34, 130 56.75 M180 41.25 C163.82 46.26, 146.64 51.84, 130 56.75 M130 56.75 C103.22 65.68, 105.66 66.38, 78 56.75 M130 56.75 C106.15 65.79, 104 64.99, 78 56.75 M78 56.75 C65.69 54.38, 54.99 49.06, 26 41.25 M78 56.75 C62.59 53.32, 45.56 47.05, 26 41.25 M26 41.25 C0.42 31.69, -1.02 31.8, 26 24.75 M26 41.25 C2.24 32.97, -0.44 31.03, 26 24.75 M26 24.75 C38.55 20.06, 53.86 16.92, 78 8.25 M26 24.75 C39.1 19.32, 53.67 16.71, 78 8.25 M78 8.25 C103.17 0.47, 105.59 -0.98, 130 8.25 M78 8.25 C104.3 -1.34, 104.86 -0.55, 130 8.25" stroke="#000000" stroke-width="1" fill="none"></path></g><g transform="translate(858.5632247924805 154.8431625366211) rotate(0 54 13)"><text x="54" y="18" font-family="Virgil, Segoe UI Emoji" font-size="20px" fill="#000000" text-anchor="middle" style="white-space: pre;" direction="ltr">text_1.txt</text></g><g stroke-linecap="round" transform="translate(804.5558700561523 217.99262237548828) rotate(0 103 32.5)"><path d="M130 8.25 M130 8.25 C142.73 13.15, 151.99 14.48, 180 24.75 M130 8.25 C141.97 12.66, 155.25 17.04, 180 24.75 M180 24.75 C205.84 32.5, 204.75 31.89, 180 41.25 M180 24.75 C206.91 30.82, 205.58 31.43, 180 41.25 M180 41.25 C159.03 48.15, 142.16 54.62, 130 56.75 M180 41.25 C168.22 45.71, 157.83 48.52, 130 56.75 M130 56.75 C105.66 66.38, 105.87 65.69, 78 56.75 M130 56.75 C104 64.99, 101.88 66.38, 78 56.75 M78 56.75 C65.2 52.77, 55.09 49.4, 26 41.25 M78 56.75 C57.47 50.68, 38.08 44.64, 26 41.25 M26 41.25 C-1.02 31.8, 1.95 32.97, 26 24.75 M26 41.25 C-0.44 31.03, -0.48 34.07, 26 24.75 M26 24.75 C42.98 20.64, 61.15 12.72, 78 8.25 M26 24.75 C45.89 19.95, 63.32 13.48, 78 8.25 M78 8.25 C105.59 -0.98, 104.26 -1.17, 130 8.25 M78 8.25 C104.86 -0.55, 105.49 -1.79, 130 8.25" stroke="#000000" stroke-width="1" fill="none"></path></g><g transform="translate(849.0558700561523 237.49262237548828) rotate(0 58.5 13)"><text x="58.5" y="18" font-family="Virgil, Segoe UI Emoji" font-size="20px" fill="#000000" text-anchor="middle" style="white-space: pre;" direction="ltr">text_2.txt</text></g><g stroke-linecap="round" transform="translate(797.7947616577148 314.99256134033203) rotate(0 103 32.5)"><path d="M130 8.25 M130 8.25 C143.4 11.35, 158.44 16.23, 180 24.75 M130 8.25 C141.47 12.12, 152.01 15.36, 180 24.75 M180 24.75 C204.75 31.89, 206.79 31.1, 180 41.25 M180 24.75 C205.58 31.43, 207.92 32.67, 180 41.25 M180 41.25 C165.22 47.65, 147.91 50.89, 130 56.75 M180 41.25 C162.63 47.26, 146.99 52.84, 130 56.75 M130 56.75 C105.87 65.69, 104 65, 78 56.75 M130 56.75 C101.88 66.38, 102.23 63.37, 78 56.75 M78 56.75 C59.43 50.15, 42.12 46.43, 26 41.25 M78 56.75 C57.93 49.73, 36.86 43.72, 26 41.25 M26 41.25 C1.95 32.97, -0.39 31.28, 26 24.75 M26 41.25 C-0.48 34.07, 1.03 30.82, 26 24.75 M26 24.75 C41.2 18.65, 59.31 13.67, 78 8.25 M26 24.75 C36.46 21.1, 48.71 16.88, 78 8.25 M78 8.25 C104.26 -1.17, 104.75 -0.48, 130 8.25 M78 8.25 C105.49 -1.79, 102.8 -1.61, 130 8.25" stroke="#000000" stroke-width="1" fill="none"></path></g><g transform="translate(842.7947616577148 334.49256134033203) rotate(0 58 13)"><text x="58" y="18" font-family="Virgil, Segoe UI Emoji" font-size="20px" fill="#000000" text-anchor="middle" style="white-space: pre;" direction="ltr">text_3.txt</text></g><g stroke-linecap="round"><g transform="translate(734.5855941772461 156.56720733642578) rotate(0 37.24614627773143 5.246615690169197)"><path d="M-0.9 -0.61 C11.19 1.2, 60.73 8.14, 73.14 10.06 M0.83 1.68 C13.24 3.69, 63.43 9.36, 75.39 11.1" stroke="#000000" stroke-width="1" fill="none"></path></g><g transform="translate(734.5855941772461 156.56720733642578) rotate(0 37.24614627773143 5.246615690169197)"><path d="M45.11 16.26 C54.88 14.89, 66.53 14.2, 75.73 10.94 M46.52 16.77 C54.04 15.38, 63.1 14.1, 75.42 10.21" stroke="#000000" stroke-width="1" fill="none"></path></g><g transform="translate(734.5855941772461 156.56720733642578) rotate(0 37.24614627773143 5.246615690169197)"><path d="M47.7 -4.1 C56.42 1.66, 67.16 8.12, 75.73 10.94 M49.12 -3.59 C55.79 0.61, 64.14 4.93, 75.42 10.21" stroke="#000000" stroke-width="1" fill="none"></path></g></g><mask></mask><g stroke-linecap="round"><g transform="translate(733.6304550170898 166.11945343017624) rotate(0 31.15757989858386 41.48973011156523)"><path d="M-0.61 -0.88 C-0.31 11.78, -10.25 61.03, 0.97 75.03 C12.19 89.02, 55.69 81.87, 66.7 83.11 M1.27 1.28 C2.01 14.18, -7.58 63.04, 3.19 76.33 C13.95 89.63, 55.18 79.85, 65.88 81.05" stroke="#000000" stroke-width="1" fill="none"></path></g><g transform="translate(733.6304550170898 166.11945343017624) rotate(0 31.15757989858386 41.48973011156523)"><path d="M36.88 91.4 C44.08 90.16, 52.09 87.94, 65.71 80.55 M37.4 92.79 C44.27 90.86, 51.35 87.23, 64.99 81.52" stroke="#000000" stroke-width="1" fill="none"></path></g><g transform="translate(733.6304550170898 166.11945343017624) rotate(0 31.15757989858386 41.48973011156523)"><path d="M35.66 70.91 C42.99 74.42, 51.28 76.94, 65.71 80.55 M36.18 72.3 C43.23 75.24, 50.6 76.47, 64.99 81.52" stroke="#000000" stroke-width="1" fill="none"></path></g></g><mask></mask><g stroke-linecap="round"><g transform="translate(526.9477233886719 43.40430527225058) rotate(0 42.84698893900029 54.2702188924423)"><path d="M0.42 1.2 C6.2 4.37, 26.57 2.97, 34.47 18.91 C42.36 34.84, 39.23 82.16, 47.79 96.8 C56.35 111.45, 79.43 104.93, 85.83 106.77 M-0.81 0.78 C4.83 4.13, 25.5 3.97, 33.56 20.2 C41.62 36.43, 38.72 83.58, 47.54 98.15 C56.36 112.72, 80.2 105.89, 86.51 107.63" stroke="#000000" stroke-width="1" fill="none"></path></g><g transform="translate(526.9477233886719 43.40430527225058) rotate(0 42.84698893900029 54.2702188924423)"><path d="M69.82 114.42 C72.38 113.96, 78.53 111.8, 85.73 109.6 M66.98 114.02 C74.05 112.59, 80.96 109.63, 86.34 107.5" stroke="#000000" stroke-width="1" fill="none"></path></g><g transform="translate(526.9477233886719 43.40430527225058) rotate(0 42.84698893900029 54.2702188924423)"><path d="M69.91 100.87 C72.43 104.25, 78.56 105.93, 85.73 109.6 M67.06 100.46 C74.03 103.81, 80.91 105.62, 86.34 107.5" stroke="#000000" stroke-width="1" fill="none"></path></g></g><mask></mask><g stroke-linecap="round"><g transform="translate(527.9029846191406 44.61940002441406) rotate(0 133.2346793486258 158.92903589815958)"><path d="M0.14 -0.53 C6.41 6.19, 26.22 -8.19, 37.79 41.08 C49.36 90.35, 31.34 250.55, 69.55 295.07 C107.75 339.6, 234.43 306.32, 267.01 308.22 M-1.24 1.8 C4.9 8.58, 25.47 -6.89, 37.13 42.12 C48.78 91.13, 30.25 251.87, 68.68 295.84 C107.12 339.81, 234.71 304.22, 267.71 305.96" stroke="#000000" stroke-width="1" fill="none"></path></g><g transform="translate(527.9029846191406 44.61940002441406) rotate(0 133.2346793486258 158.92903589815958)"><path d="M239.88 320.04 C247.56 314.67, 255.84 312.28, 268.63 304.14 M241.03 319.74 C246.78 316.5, 251.26 313.56, 268.46 306.65" stroke="#000000" stroke-width="1" fill="none"></path></g><g transform="translate(527.9029846191406 44.61940002441406) rotate(0 133.2346793486258 158.92903589815958)"><path d="M237.71 299.64 C246.19 300.66, 255.16 304.67, 268.63 304.14 M238.85 299.34 C245.16 300.18, 250.07 301.32, 268.46 306.65" stroke="#000000" stroke-width="1" fill="none"></path></g></g><mask></mask><g stroke-linecap="round"><g transform="translate(527.9616130561177 46.43308230615702) rotate(0 167.299163849797 -0.16642276385725552)"><path d="M0.59 -1.13 C56.12 -1.33, 277.31 -1.15, 332.99 -1.12 M-0.56 0.89 C55.35 0.9, 279.36 0.54, 335.16 0.48" stroke="#000000" stroke-width="1" fill="none"></path></g><g transform="translate(527.9616130561177 46.43308230615702) rotate(0 167.299163849797 -0.16642276385725552)"><path d="M305.1 9.06 C315.12 8.78, 323.37 6.4, 333.9 1.58 M306.77 11.01 C316.1 7.74, 325.33 4.76, 335.36 0.79" stroke="#000000" stroke-width="1" fill="none"></path></g><g transform="translate(527.9616130561177 46.43308230615702) rotate(0 167.299163849797 -0.16642276385725552)"><path d="M305.07 -11.46 C315.12 -5.95, 323.37 -2.54, 333.9 1.58 M306.74 -9.51 C316.08 -6.43, 325.31 -3.05, 335.36 0.79" stroke="#000000" stroke-width="1" fill="none"></path></g></g><mask></mask><g stroke-linecap="round" transform="translate(876.3806457519531 16.686538696289062) rotate(0 36 26.5)"><path d="M13.25 0 M13.25 0 C26.33 0.06, 36.06 1.36, 58.75 0 M13.25 0 C28.82 -0.41, 44.03 -0.81, 58.75 0 M58.75 0 C66.39 -1.91, 71.5 3.58, 72 13.25 M58.75 0 C65.58 -1.94, 72.4 6.18, 72 13.25 M72 13.25 C71.75 22.74, 73.22 28.93, 72 39.75 M72 13.25 C72.02 21.24, 72.62 27.61, 72 39.75 M72 39.75 C73.45 47.17, 66.09 52.65, 58.75 53 M72 39.75 C69.77 47.28, 69.35 50.98, 58.75 53 M58.75 53 C38.79 52.44, 24.37 52.56, 13.25 53 M58.75 53 C43.16 52.26, 28.48 53.48, 13.25 53 M13.25 53 C5.86 52.84, 1.9 48.2, 0 39.75 M13.25 53 C3.84 52.37, 0.82 46.86, 0 39.75 M0 39.75 C0.68 33.88, 1.89 27.79, 0 13.25 M0 39.75 C-0.58 32.45, 0.02 27.41, 0 13.25 M0 13.25 C-1.24 2.96, 2.64 1.85, 13.25 0 M0 13.25 C1.53 5.98, 4.94 -1.76, 13.25 0" stroke="#000000" stroke-width="1" fill="none"></path></g><g transform="translate(891.3806457519531 30.186538696289062) rotate(0 21 13)"><text x="21" y="18" font-family="Virgil, Segoe UI Emoji" font-size="20px" fill="#000000" text-anchor="middle" style="white-space: pre;" direction="ltr">.info</text></g><g stroke-linecap="round" transform="translate(1121.6268615722656 15.529891967773438) rotate(0 73.5 31)"><path d="M92.5 8 M92.5 8 C103.76 15.32, 118.71 17.69, 128.5 24 M92.5 8 C106.57 14.09, 119.79 20.78, 128.5 24 M128.5 24 C147.21 31.63, 146.48 30.48, 128.5 40 M128.5 24 C149.12 30.38, 144.73 30.03, 128.5 40 M128.5 40 C116.52 44.21, 104.62 49.46, 92.5 54 M128.5 40 C120.85 43.79, 111.06 45.62, 92.5 54 M92.5 54 C75.74 60.94, 73.66 61.32, 55.5 54 M92.5 54 C74.87 61.21, 72.89 62.16, 55.5 54 M55.5 54 C42.83 48.1, 25.84 44.13, 18.5 40 M55.5 54 C41.9 48.41, 27.74 43, 18.5 40 M18.5 40 C-1.74 31.9, 1.92 31.79, 18.5 24 M18.5 40 C1.63 30.97, -1.21 30.95, 18.5 24 M18.5 24 C29.04 18.3, 42.15 15.34, 55.5 8 M18.5 24 C34.24 17.55, 47.86 12.02, 55.5 8 M55.5 8 C74.92 -1.54, 74.1 1.81, 92.5 8 M55.5 8 C71.72 -2.01, 76.18 -2.1, 92.5 8" stroke="#000000" stroke-width="1" fill="none"></path></g><g transform="translate(1144.1268615722656 33.52989196777344) rotate(0 51 13)"><text x="51" y="18" font-family="Virgil, Segoe UI Emoji" font-size="20px" fill="#000000" text-anchor="middle" style="white-space: pre;" direction="ltr">uuid_1.txt</text></g><g stroke-linecap="round" transform="translate(1126.3134460449219 105.30604553222656) rotate(0 73.5 31)"><path d="M92.5 8 M92.5 8 C100.44 12.38, 113.76 16.56, 128.5 24 M92.5 8 C105.33 14.28, 119.11 19.46, 128.5 24 M128.5 24 C145.86 31.12, 147.3 33.21, 128.5 40 M128.5 24 C149.28 32.15, 148.22 34.26, 128.5 40 M128.5 40 C118.12 43.21, 106.01 50.94, 92.5 54 M128.5 40 C120.24 43.76, 113.06 45.75, 92.5 54 M92.5 54 C73.68 60.58, 72.09 63.71, 55.5 54 M92.5 54 C76.14 59.94, 71.92 60.77, 55.5 54 M55.5 54 C45.85 51.43, 37.31 48.7, 18.5 40 M55.5 54 C44.92 49.51, 34.4 46.24, 18.5 40 M18.5 40 C0.33 31.76, 0.1 30.5, 18.5 24 M18.5 40 C-2.05 32.27, 1.14 33.72, 18.5 24 M18.5 24 C29.25 21.65, 38.38 16.35, 55.5 8 M18.5 24 C27.09 21, 34.42 17.47, 55.5 8 M55.5 8 C72.07 -0.36, 73.72 0.76, 92.5 8 M55.5 8 C75.04 1.41, 74.24 0.13, 92.5 8" stroke="#000000" stroke-width="1" fill="none"></path></g><g transform="translate(1144.8134460449219 123.30604553222656) rotate(0 55 13)"><text x="55" y="18" font-family="Virgil, Segoe UI Emoji" font-size="20px" fill="#000000" text-anchor="middle" style="white-space: pre;" direction="ltr">uuid_2.txt</text></g><g stroke-linecap="round" transform="translate(1130.5820007324219 224.7836456298828) rotate(0 73.5 31)"><path d="M92.5 8 M92.5 8 C105.83 13.03, 120.08 20.72, 128.5 24 M92.5 8 C102.64 13.1, 114.36 18.69, 128.5 24 M128.5 24 C147.13 33.06, 148.96 32.27, 128.5 40 M128.5 24 C146.61 34.29, 148.06 30.23, 128.5 40 M128.5 40 C115.91 45.81, 104.85 49.4, 92.5 54 M128.5 40 C120.06 41.98, 113.93 46.86, 92.5 54 M92.5 54 C72.2 60.19, 72.93 61.18, 55.5 54 M92.5 54 C74.31 62.02, 73.95 63.21, 55.5 54 M55.5 54 C42.23 49.72, 28.76 42.62, 18.5 40 M55.5 54 C46.59 50.78, 37.15 46.5, 18.5 40 M18.5 40 C0.23 33, 1.5 31.08, 18.5 24 M18.5 40 C-1.2 33.77, 1.46 34.29, 18.5 24 M18.5 24 C30.34 20.19, 44.96 14.74, 55.5 8 M18.5 24 C27.26 20.29, 36.9 16.96, 55.5 8 M55.5 8 C75.22 0.21, 74.11 -0.08, 92.5 8 M55.5 8 C73.14 0.14, 72.97 0.97, 92.5 8" stroke="#000000" stroke-width="1" fill="none"></path></g><g transform="translate(1149.0820007324219 242.7836456298828) rotate(0 55 13)"><text x="55" y="18" font-family="Virgil, Segoe UI Emoji" font-size="20px" fill="#000000" text-anchor="middle" style="white-space: pre;" direction="ltr">uuid_3.txt</text></g><g stroke-linecap="round"><g transform="translate(957.7537536621094 45.57466125488281) rotate(0 79.82631928736743 0.41608967851192347)"><path d="M-0.24 -0.04 C26.8 0.15, 134.42 0.68, 161.48 0.93 M-1.83 -1.11 C25.16 -0.78, 133.45 1.33, 160.73 1.94" stroke="#000000" stroke-width="1" fill="none"></path></g><g transform="translate(957.7537536621094 45.57466125488281) rotate(0 79.82631928736743 0.41608967851192347)"><path d="M132.27 12.26 C137.29 11.13, 144.8 7.19, 158.91 2.2 M131.86 11.37 C142.96 8.25, 154.79 4.3, 161.47 0.99" stroke="#000000" stroke-width="1" fill="none"></path></g><g transform="translate(957.7537536621094 45.57466125488281) rotate(0 79.82631928736743 0.41608967851192347)"><path d="M132.69 -8.26 C137.58 -4.61, 144.99 -3.77, 158.91 2.2 M132.28 -9.15 C143.28 -4.29, 154.95 -0.26, 161.47 0.99" stroke="#000000" stroke-width="1" fill="none"></path></g></g><mask></mask><g stroke-linecap="round"><g transform="translate(957.7537536621094 48.44029235839844) rotate(0 82.9860269875735 45.704818825874035)"><path d="M-0.23 -0.8 C12.33 0.28, 59.82 -7.32, 74.89 7.29 C89.97 21.89, 74.84 73.29, 90.2 86.82 C105.57 100.34, 154.56 88.28, 167.06 88.44 M-1.81 1.39 C10.58 2.58, 58.48 -5.28, 73.64 8.64 C88.81 22.56, 73.46 71.39, 89.15 84.92 C104.84 98.44, 154.83 89.26, 167.79 89.79" stroke="#000000" stroke-width="1" fill="none"></path></g><g transform="translate(957.7537536621094 48.44029235839844) rotate(0 82.9860269875735 45.704818825874035)"><path d="M138.98 100.89 C146.79 97.85, 155.94 97.14, 168.55 88.17 M140.33 101.4 C148.08 99.4, 155.89 94.83, 167.44 89.45" stroke="#000000" stroke-width="1" fill="none"></path></g><g transform="translate(957.7537536621094 48.44029235839844) rotate(0 82.9860269875735 45.704818825874035)"><path d="M137.66 80.41 C145.95 82.71, 155.45 87.32, 168.55 88.17 M139.02 80.92 C146.96 84.78, 155.14 86.05, 167.44 89.45" stroke="#000000" stroke-width="1" fill="none"></path></g></g><mask></mask><g stroke-linecap="round"><g transform="translate(957.7537536621094 43.664199829101534) rotate(0 84.47395411121514 106.41213067219917)"><path d="M-0.05 -1.07 C13.44 2.09, 65.78 -13.5, 79.99 18.68 C94.2 50.87, 70.12 159.51, 85.2 192.05 C100.28 224.58, 155.98 209.9, 170.48 213.89 M-1.53 0.98 C11.86 4.34, 64.04 -12.07, 78.91 20 C93.78 52.07, 72.45 160.98, 87.69 193.39 C102.93 225.79, 156.44 211.11, 170.36 214.43" stroke="#000000" stroke-width="1" fill="none"></path></g><g transform="translate(957.7537536621094 43.664199829101534) rotate(0 84.47395411121514 106.41213067219917)"><path d="M140.44 224.43 C147.8 221.26, 154.82 219.07, 168.55 216.05 M143.09 223.92 C153.99 220.18, 162.97 216.6, 169.85 214.86" stroke="#000000" stroke-width="1" fill="none"></path></g><g transform="translate(957.7537536621094 43.664199829101534) rotate(0 84.47395411121514 106.41213067219917)"><path d="M140.33 203.91 C147.66 205.29, 154.71 207.66, 168.55 216.05 M142.98 203.4 C153.99 207.58, 163.02 211.9, 169.85 214.86" stroke="#000000" stroke-width="1" fill="none"></path></g></g><mask></mask></svg>